<?xml version="1.0" encoding="iso-8859-1"?>
<!-- Uploaded to: SVG Repo, www.svgrepo.com, Generator: SVG Repo Mixer Tools -->
<svg version="1.1" id="Layer_1" xmlns="http://www.w3.org/2000/svg" xmlns:xlink="http://www.w3.org/1999/xlink" 
	 viewBox="0 0 512.001 512.001" xml:space="preserve">
<path style="fill:#FFF5C6;" d="M320.944,270.136L320.944,270.136l-64.943-139.102l-64.943,139.103l0,0l-0.671,1.438l-32.835,70.327
	c0.909,0.055,1.834,0.092,2.794,0.092c34.524,0,34.524-36.075,69.049-36.075s34.525,36.075,69.051,36.075
	c23.056,0,30.724-16.079,43.551-26.768l-20.38-43.652L320.944,270.136z"/>
<path style="fill:#FF932A;" d="M229.942,186.846L256,131.033l26.058,55.813c20.989-9.817,35.537-31.111,35.537-55.813
	c0-34.017-27.576-61.595-61.595-61.595s-61.595,27.576-61.595,61.595C194.406,155.736,208.953,177.029,229.942,186.846z"/>
<path style="fill:#37B3CC;" d="M424.751,492.478l-82.756-177.253c-12.826,10.689-20.495,26.768-43.551,26.768
	c-34.525,0-34.525-36.075-69.051-36.075c-34.524,0-34.524,36.075-69.049,36.075c-0.96,0-1.885-0.038-2.794-0.092l-70.3,150.577
	H424.751z"/>
<rect x="300.222" y="405.553" transform="matrix(-0.423 -0.9061 0.9061 -0.423 129.5245 908.8113)" style="fill:#FFFFFF;" width="107.781" height="15.229"/>
<path style="fill:#02DEAE;" d="M98.758,306.564l-86.8,185.915h75.291l70.301-150.577
	C128.352,340.156,125.188,311.203,98.758,306.564z"/>
<g>
	<path style="fill:#FFF5C6;" d="M191.056,270.136l-37.646-80.634L98.758,306.564c26.431,4.639,29.594,33.592,58.794,35.337
		l32.835-70.327L191.056,270.136z"/>
	<path style="fill:#FFF5C6;" d="M341.995,315.225c6.381-5.318,14.032-9.307,25.503-9.307c31.999,0,34.362,30.968,62.019,35.504
		l-70.927-151.92l-37.646,80.634l0.671,1.438L341.995,315.225z"/>
</g>
<path style="fill:#02DEAE;" d="M367.498,305.918c-11.471,0-19.122,3.99-25.503,9.307l82.756,177.253h75.291l-70.524-151.057
	C401.86,336.885,399.497,305.918,367.498,305.918z"/>
<g>
	<path style="fill:#002770;" d="M442.519,351.271L442.519,351.271L358.59,171.503l-37.646,80.633l-28.947-62.001
		c20.393-12.462,33.213-34.908,33.213-59.101c0-38.162-31.048-69.21-69.21-69.21s-69.21,31.048-69.21,69.21
		c0,24.193,12.82,46.639,33.213,59.101l-28.947,62.001l-37.646-80.633L87.653,312.347l0,0L0,500.094h75.291h16.807h68.126v-15.229
		H99.209l39.038-83.616l24.126-51.676c0.046-0.002,0.087-0.007,0.133-0.009c1.147-0.044,2.265-0.119,3.348-0.23
		c0.012-0.001,0.023-0.003,0.037-0.004c1.084-0.113,2.136-0.26,3.16-0.436c0.045-0.008,0.091-0.013,0.137-0.021
		c0.997-0.174,1.964-0.381,2.906-0.609c0.072-0.017,0.146-0.033,0.218-0.051c0.916-0.227,1.803-0.483,2.67-0.759
		c0.089-0.028,0.181-0.055,0.27-0.084c0.846-0.275,1.666-0.576,2.468-0.892c0.1-0.04,0.2-0.077,0.297-0.117
		c0.786-0.318,1.548-0.657,2.295-1.011c0.104-0.05,0.208-0.097,0.312-0.148c0.733-0.356,1.447-0.73,2.144-1.118
		c0.104-0.058,0.208-0.116,0.312-0.174c0.688-0.39,1.359-0.795,2.015-1.212c0.102-0.065,0.203-0.129,0.305-0.195
		c0.65-0.42,1.284-0.853,1.905-1.296c0.096-0.069,0.193-0.139,0.289-0.208c0.617-0.448,1.221-0.905,1.811-1.371
		c0.09-0.071,0.18-0.143,0.269-0.214c0.59-0.472,1.17-0.951,1.736-1.438c0.081-0.07,0.16-0.139,0.242-0.209
		c0.57-0.493,1.129-0.993,1.677-1.498c0.072-0.066,0.142-0.132,0.213-0.198c0.552-0.513,1.098-1.028,1.632-1.548
		c0.059-0.058,0.117-0.115,0.176-0.173c0.542-0.53,1.077-1.061,1.604-1.594c0.048-0.048,0.094-0.096,0.142-0.144
		c0.536-0.543,1.066-1.087,1.589-1.63c0.035-0.036,0.069-0.072,0.104-0.108c0.533-0.553,1.061-1.105,1.585-1.652
		c8.387-8.765,15.013-15.687,29.022-15.687c14.011,0,20.636,6.923,29.025,15.688c9.146,9.556,19.511,20.387,40.026,20.387
		c5.129,0,9.625-0.677,13.626-1.842c12.002-3.494,19.552-11.377,26.415-18.544c0.092-0.096,0.183-0.191,0.275-0.287
		c0.278-0.29,0.553-0.575,0.828-0.862l73.203,156.791H180.531v15.229h239.372h16.807h75.291L442.519,351.271z M413.134,324.33
		c-0.048-0.045-0.095-0.088-0.142-0.134c-0.848-0.806-1.69-1.64-2.535-2.5c-0.07-0.071-0.14-0.141-0.211-0.213
		c-0.895-0.914-1.794-1.851-2.71-2.806c-9.152-9.55-19.523-20.374-40.038-20.374c-0.926,0-1.836,0.03-2.737,0.075
		c-0.246,0.012-0.489,0.027-0.734,0.043c-0.748,0.048-1.488,0.111-2.221,0.19c-0.16,0.017-0.323,0.029-0.482,0.049
		c-0.865,0.103-1.719,0.229-2.563,0.377c-0.207,0.037-0.412,0.078-0.617,0.117c-0.68,0.128-1.353,0.272-2.02,0.43
		c-0.205,0.049-0.412,0.094-0.615,0.146c-0.819,0.207-1.633,0.435-2.434,0.688c-0.137,0.044-0.272,0.093-0.409,0.138
		c-0.68,0.223-1.355,0.464-2.023,0.721c-0.215,0.083-0.431,0.165-0.645,0.252c-0.767,0.31-1.529,0.634-2.281,0.989
		c-0.02,0.009-0.041,0.017-0.061,0.027c-0.771,0.365-1.532,0.763-2.289,1.177c-0.089,0.049-0.182,0.089-0.271,0.139l-0.38-0.814l0,0
		l-15.365-32.913l29.243-62.633L413.134,324.33z M202.02,131.034c0-29.764,24.216-53.98,53.98-53.98s53.98,24.216,53.98,53.98
		c0,18.297-9.402,35.313-24.477,45.193l-29.503-63.193l-29.503,63.193C211.421,166.347,202.02,149.331,202.02,131.034z
		 M153.411,207.502l29.243,62.633l-14.398,30.839l-15.237,32.635c-0.323-0.071-0.643-0.145-0.957-0.225
		c-0.204-0.052-0.413-0.098-0.613-0.154c-0.609-0.17-1.206-0.353-1.786-0.557c-0.009-0.003-0.018-0.007-0.027-0.01
		c-0.573-0.202-1.13-0.423-1.677-0.656c-0.185-0.079-0.363-0.165-0.545-0.248c-0.368-0.167-0.733-0.335-1.089-0.515
		c-0.204-0.103-0.404-0.211-0.605-0.318c-0.327-0.175-0.651-0.352-0.97-0.538c-0.202-0.117-0.402-0.237-0.601-0.357
		c-0.314-0.192-0.623-0.39-0.931-0.592c-0.188-0.124-0.377-0.246-0.561-0.373c-0.326-0.223-0.648-0.456-0.967-0.69
		c-0.155-0.114-0.313-0.224-0.467-0.341c-0.456-0.345-0.906-0.7-1.35-1.064c-0.029-0.023-0.058-0.048-0.086-0.072
		c-0.441-0.363-0.875-0.737-1.307-1.118c-0.158-0.14-0.315-0.284-0.472-0.426c-0.291-0.263-0.583-0.528-0.872-0.798
		c-0.179-0.167-0.356-0.337-0.534-0.506c-0.268-0.256-0.536-0.514-0.803-0.775c-0.183-0.179-0.364-0.357-0.547-0.539
		c-0.267-0.265-0.534-0.533-0.801-0.803c-0.176-0.178-0.35-0.353-0.526-0.533c-0.291-0.297-0.584-0.598-0.876-0.901
		c-0.151-0.155-0.302-0.31-0.453-0.467c-0.426-0.442-0.853-0.887-1.284-1.337c-0.415-0.432-0.834-0.869-1.256-1.307
		c-0.137-0.142-0.275-0.284-0.413-0.427c-0.316-0.327-0.635-0.654-0.955-0.982c-0.157-0.16-0.314-0.32-0.472-0.48
		c-0.357-0.362-0.718-0.724-1.082-1.086c-0.107-0.106-0.21-0.211-0.317-0.317c-0.46-0.454-0.927-0.906-1.4-1.355
		c-0.131-0.124-0.264-0.247-0.396-0.371c-0.353-0.332-0.711-0.663-1.073-0.992c-0.171-0.154-0.342-0.309-0.514-0.462
		c-0.357-0.319-0.72-0.634-1.086-0.947c-0.156-0.134-0.311-0.268-0.468-0.401c-0.514-0.431-1.036-0.858-1.569-1.276
		c-0.101-0.078-0.204-0.154-0.305-0.233c-0.443-0.342-0.89-0.68-1.347-1.012c-0.187-0.136-0.378-0.27-0.568-0.404
		c-0.397-0.28-0.799-0.555-1.208-0.826c-0.194-0.129-0.387-0.258-0.584-0.385c-0.523-0.337-1.056-0.666-1.599-0.986
		c-0.076-0.045-0.149-0.092-0.226-0.137c-0.613-0.356-1.243-0.698-1.883-1.03c-0.2-0.104-0.405-0.202-0.607-0.303
		c-0.466-0.233-0.938-0.458-1.419-0.676c-0.232-0.106-0.466-0.21-0.703-0.313c-0.155-0.067-0.305-0.14-0.462-0.206L153.411,207.502z
		 M23.917,484.865l79.021-169.257c0.075,0.029,0.148,0.063,0.223,0.093c0.7,0.282,1.379,0.59,2.041,0.92
		c0.122,0.061,0.246,0.118,0.367,0.18c0.703,0.363,1.385,0.753,2.052,1.167c0.141,0.087,0.28,0.178,0.419,0.267
		c0.656,0.42,1.302,0.857,1.931,1.321c0.018,0.013,0.038,0.026,0.057,0.04c0.649,0.48,1.28,0.988,1.908,1.51
		c0.133,0.111,0.267,0.221,0.399,0.334c0.604,0.514,1.202,1.042,1.794,1.589c0.1,0.092,0.199,0.188,0.299,0.281
		c0.545,0.51,1.087,1.031,1.629,1.565c0.098,0.096,0.197,0.192,0.295,0.289c0.593,0.59,1.187,1.193,1.783,1.806
		c0.15,0.154,0.301,0.31,0.451,0.465c0.573,0.593,1.147,1.19,1.731,1.798c0.48,0.501,0.966,1.006,1.454,1.513
		c0.131,0.136,0.264,0.272,0.396,0.409c0.383,0.395,0.769,0.79,1.158,1.187c0.161,0.164,0.323,0.328,0.486,0.492
		c0.399,0.402,0.804,0.803,1.212,1.204c0.134,0.132,0.265,0.263,0.4,0.394c0.54,0.525,1.087,1.048,1.646,1.566
		c0.074,0.069,0.15,0.135,0.224,0.204c0.477,0.439,0.961,0.874,1.454,1.305c0.175,0.153,0.352,0.304,0.529,0.455
		c0.415,0.355,0.837,0.708,1.264,1.055c0.191,0.155,0.381,0.311,0.574,0.464c0.488,0.387,0.986,0.768,1.491,1.142
		c0.126,0.093,0.249,0.19,0.376,0.282c0.631,0.459,1.277,0.907,1.938,1.341c0.162,0.107,0.331,0.208,0.495,0.314
		c0.507,0.325,1.021,0.644,1.548,0.952c0.231,0.136,0.466,0.269,0.702,0.402c0.497,0.28,1.004,0.551,1.52,0.816
		c0.233,0.119,0.462,0.241,0.698,0.356c0.682,0.335,1.38,0.657,2.096,0.961c0.066,0.028,0.129,0.06,0.195,0.087
		c0.779,0.327,1.583,0.629,2.403,0.917c0.246,0.086,0.501,0.164,0.751,0.247c0.376,0.124,0.742,0.255,1.127,0.37l-0.55,1.178l0,0
		L82.401,484.865H23.917z M298.444,334.379c-14.01,0-20.635-6.922-29.023-15.687c-9.147-9.557-19.513-20.388-40.028-20.388
		c-5.77,0-10.737,0.857-15.099,2.301c-11.149,3.691-18.353,11.218-24.926,18.086c-0.248,0.259-0.491,0.513-0.736,0.769
		c-0.168,0.175-0.336,0.35-0.502,0.523c-0.188,0.195-0.374,0.388-0.56,0.581c-0.329,0.341-0.656,0.677-0.983,1.01
		c-0.135,0.138-0.27,0.277-0.405,0.413c-0.458,0.465-0.915,0.923-1.371,1.371c-0.052,0.051-0.105,0.099-0.156,0.151
		c-0.402,0.393-0.804,0.777-1.206,1.155c-0.125,0.117-0.25,0.232-0.375,0.347c-0.371,0.342-0.742,0.678-1.116,1.006
		c-0.097,0.085-0.194,0.174-0.291,0.258c-0.463,0.402-0.93,0.792-1.402,1.171c-0.089,0.072-0.181,0.14-0.271,0.211
		c-0.386,0.305-0.775,0.6-1.169,0.887c-0.138,0.101-0.276,0.201-0.415,0.3c-0.412,0.292-0.829,0.575-1.253,0.848
		c-0.081,0.053-0.16,0.109-0.243,0.159c-0.501,0.316-1.011,0.616-1.531,0.904c-0.129,0.071-0.262,0.138-0.392,0.208
		c-0.408,0.217-0.822,0.426-1.245,0.625c-0.156,0.074-0.313,0.148-0.471,0.219c-0.523,0.236-1.055,0.459-1.602,0.665
		c-0.031,0.011-0.061,0.025-0.091,0.037c-0.475,0.177-0.971,0.33-1.466,0.484l29.348-62.855l-0.001-0.003l34.159-73.163l0,0
		l22.381-47.939l22.381,47.939l0,0l34.158,73.163l-0.001,0.003l20.18,43.22c-0.113,0.11-0.219,0.221-0.332,0.332
		c-0.602,0.589-1.189,1.18-1.773,1.773c-0.247,0.251-0.5,0.5-0.743,0.75c-0.806,0.828-1.6,1.656-2.386,2.476
		C319.091,327.454,312.461,334.379,298.444,334.379z M429.599,484.865l-37.37-80.043l-40.67-87.111
		c0.009-0.005,0.017-0.011,0.025-0.016c0.533-0.32,1.069-0.614,1.608-0.894c0.13-0.068,0.261-0.134,0.391-0.199
		c0.518-0.26,1.039-0.507,1.565-0.732c0.029-0.012,0.058-0.027,0.087-0.04c0.552-0.235,1.113-0.444,1.677-0.641
		c0.135-0.047,0.27-0.092,0.406-0.137c0.55-0.183,1.106-0.352,1.67-0.501c0.02-0.005,0.041-0.012,0.061-0.017
		c0.583-0.151,1.178-0.279,1.778-0.396c0.145-0.028,0.29-0.055,0.437-0.081c0.593-0.106,1.193-0.2,1.805-0.273
		c0.013-0.002,0.026-0.004,0.041-0.005c0.624-0.073,1.264-0.124,1.911-0.164c0.16-0.01,0.322-0.019,0.483-0.026
		c0.653-0.033,1.314-0.054,1.992-0.054c14.015,0,20.646,6.92,29.042,15.681c0.456,0.476,0.917,0.956,1.381,1.439
		c0.135,0.14,0.272,0.28,0.407,0.42c0.338,0.35,0.678,0.7,1.022,1.051c0.18,0.184,0.362,0.367,0.544,0.549
		c0.306,0.309,0.611,0.616,0.922,0.924c0.203,0.202,0.41,0.402,0.616,0.604c0.296,0.29,0.595,0.58,0.898,0.868
		c0.218,0.208,0.439,0.414,0.66,0.621c0.3,0.28,0.601,0.558,0.906,0.836c0.229,0.208,0.461,0.415,0.693,0.622
		c0.308,0.273,0.619,0.543,0.934,0.812c0.239,0.204,0.478,0.408,0.721,0.61c0.321,0.267,0.649,0.529,0.977,0.791
		c0.246,0.196,0.491,0.393,0.741,0.586c0.346,0.267,0.702,0.527,1.057,0.788c0.244,0.179,0.483,0.359,0.731,0.535
		c0.401,0.284,0.814,0.558,1.229,0.834c0.214,0.142,0.421,0.288,0.639,0.428c0.633,0.406,1.278,0.801,1.941,1.182
		c0.116,0.066,0.238,0.127,0.354,0.192c0.554,0.312,1.116,0.618,1.692,0.911c0.254,0.129,0.52,0.248,0.779,0.373
		c0.452,0.218,0.905,0.436,1.371,0.641c0.302,0.133,0.614,0.256,0.922,0.383c0.442,0.182,0.885,0.363,1.34,0.533
		c0.332,0.124,0.672,0.239,1.011,0.355c0.451,0.155,0.905,0.307,1.369,0.45c0.356,0.11,0.72,0.213,1.084,0.315
		c0.249,0.069,0.488,0.149,0.741,0.215l63.861,136.786h-58.482V484.865z"/>
	<rect x="248.382" y="11.906" style="fill:#002770;" width="15.229" height="34.693"/>
	
		<rect x="199.71" y="29.395" transform="matrix(-0.3827 -0.9239 0.9239 -0.3827 265.9308 251.7061)" style="fill:#002770;" width="34.694" height="15.229"/>
	
		<rect x="166.688" y="51.444" transform="matrix(-0.7071 -0.7071 0.7071 -0.7071 272.4043 230.951)" style="fill:#002770;" width="34.692" height="15.229"/>
	
		<rect x="144.615" y="84.48" transform="matrix(-0.9239 -0.3827 0.3827 -0.9239 276.35 239.1591)" style="fill:#002770;" width="34.694" height="15.229"/>
	<rect x="136.872" y="123.419" style="fill:#002770;" width="34.693" height="15.229"/>
	<rect x="340.439" y="123.419" style="fill:#002770;" width="34.693" height="15.229"/>
	
		<rect x="332.677" y="84.48" transform="matrix(0.9239 -0.3827 0.3827 0.9239 -8.5985 140.9613)" style="fill:#002770;" width="34.693" height="15.229"/>
	
		<rect x="320.363" y="41.707" transform="matrix(-0.7072 -0.707 0.707 -0.7072 518.1755 332.6977)" style="fill:#002770;" width="15.229" height="34.692"/>
	
		<rect x="287.344" y="19.658" transform="matrix(-0.9239 -0.3827 0.3827 -0.9239 553.3023 184.07)" style="fill:#002770;" width="15.229" height="34.694"/>
</g>
</svg>