<?xml version="1.0" encoding="iso-8859-1"?>
<!-- Uploaded to: SVG Repo, www.svgrepo.com, Generator: SVG Repo Mixer Tools -->
<svg version="1.1" id="Layer_1" xmlns="http://www.w3.org/2000/svg" xmlns:xlink="http://www.w3.org/1999/xlink" 
	 viewBox="0 0 512 512" xml:space="preserve">
<path style="fill:#FBB03B;" d="M74.313,44.782l50.516,50.516c9.3,9.3,24.378,9.3,33.678,0l0,0c9.3-9.3,9.3-24.378,0-33.678
	l-50.516-50.516L74.313,44.782z"/>
<path style="fill:#FCC062;" d="M467.218,437.687l-50.516-50.516c-9.3-9.3-9.3-24.378,0-33.678l0,0c9.3-9.3,24.378-9.3,33.678,0
	l50.516,50.516L467.218,437.687z"/>
<path style="fill:#00A99D;" d="M7.852,504.148L7.852,504.148c0-271.806,220.342-492.148,492.148-492.148h0.001l0,0
	C500.002,283.805,279.659,504.148,7.852,504.148L7.852,504.148z"/>
<path style="fill:#66CBC4;" d="M500.002,12L500.002,12L500.002,12c-15.602-0.001-31.009,0.81-46.239,2.23
	C431.863,249.112,244.965,436.01,10.083,457.908c-1.42,15.23-2.231,30.638-2.231,46.239l0,0l0,0
	C279.659,504.148,500.002,283.805,500.002,12z"/>
<polygon style="fill:#FBB03B;" points="499.535,11.533 382.961,27.88 484.416,129.335 "/>
<polygon style="fill:#FCC062;" points="499.535,8.393 449.295,12.202 441.607,87.574 486.51,132.476 "/>
<circle style="fill:#29ABE2;" cx="253.922" cy="258.078" r="79.381"/>
<path style="fill:#FFFFFF;" d="M326.895,185.105c-40.299-40.299-105.637-40.299-145.936,0s-40.299,105.637,0,145.936
	s105.637,40.299,145.936,0S367.193,225.404,326.895,185.105z M197.798,314.203c-30.999-30.999-30.999-81.26,0-112.258
	c31-31,81.26-31,112.258,0c31,30.999,31,81.258,0,112.258C279.057,345.202,228.797,345.202,197.798,314.203z"/>
<path style="fill:#FBB03B;" d="M242.701,336.654l22.452-22.451c18.599-18.599,18.599-48.755,0-67.355l0,0
	c-18.599-18.599-48.755-18.599-67.355,0l-22.451,22.452C175.346,269.3,180.364,326.656,242.701,336.654z"/>
<rect x="62.684" y="401.772" transform="matrix(-0.7071 -0.7071 0.7071 -0.7071 -114.8841 771.6624)" style="fill:#FFFFFF;" width="79.381" height="15.704"/>
<rect x="133.745" y="441.056" transform="matrix(-0.7071 -0.7071 0.7071 -0.7071 -75.5621 866.5181)" width="15.872" height="15.704"/>
<rect x="55.155" y="362.479" transform="matrix(-0.7071 -0.7071 0.7071 -0.7071 -154.1598 676.8069)" width="15.872" height="15.704"/>
<rect x="85.142" y="379.321" transform="matrix(-0.7071 -0.7071 0.7071 -0.7071 -60.6705 749.2154)" style="fill:#FFFFFF;" width="79.381" height="15.704"/>
<rect x="156.189" y="418.609" transform="matrix(-0.7071 -0.7071 0.7071 -0.7071 -21.3746 844.0693)" width="15.872" height="15.704"/>
<rect x="77.604" y="340.021" transform="matrix(-0.7071 -0.7071 0.7071 -0.7071 -99.9581 654.3418)" width="15.872" height="15.704"/>
<rect x="107.597" y="356.871" transform="matrix(-0.7071 -0.7071 0.7071 -0.7071 -6.4629 726.7687)" style="fill:#FFFFFF;" width="79.381" height="15.704"/>
<rect x="178.644" y="396.149" transform="matrix(-0.7071 -0.7071 0.7071 -0.7071 32.8404 821.6045)" width="15.872" height="15.704"/>
<rect x="100.051" y="317.565" transform="matrix(-0.7071 -0.7071 0.7071 -0.7071 -45.7595 631.8808)" width="15.872" height="15.704"/>
<rect x="190.825" y="289.505" transform="matrix(-0.7071 -0.7071 0.7071 -0.7071 156.1466 659.392)" width="47.626" height="15.704"/>
<path d="M455.932,347.941c-10.43-10.431-26.387-12.05-38.533-4.855l-18.915-18.915c28.638-35.739,52.119-75.099,70.073-117.547
	c26.075-61.648,39.296-127.129,39.296-194.626V4.147h-7.852c-67.496,0-132.978,13.221-194.624,39.296
	c-42.447,17.953-81.807,41.435-117.547,70.073l-18.915-18.915c7.193-12.145,5.576-28.102-4.855-38.533L107.991,0L63.209,44.782
	l56.068,56.068c5.98,5.981,13.933,9.275,22.392,9.275c5.774,0,11.31-1.537,16.147-4.414l17.862,17.862
	c-10.052,8.587-19.803,17.592-29.231,27.02c-45.916,45.917-81.967,99.388-107.151,158.928C13.221,371.171,0,436.652,0,504.148
	L0.001,512h7.852c67.496,0,132.978-13.221,194.624-39.296c59.541-25.184,113.012-61.234,158.928-107.151
	c9.428-9.428,18.432-19.179,27.019-29.23l17.863,17.862c-2.877,4.836-4.414,10.373-4.414,16.147c0,8.458,3.294,16.41,9.275,22.392
	l56.068,56.068L512,404.01L455.932,347.941z M157.035,82.722l-9.814-9.814l-11.104,11.104l9.814,9.814
	c-5.36,1.477-11.344,0.125-15.549-4.08L85.417,44.782l22.574-22.573l44.964,44.964C157.16,71.378,158.511,77.362,157.035,82.722z
	 M350.302,354.449c-44.479,44.479-96.273,79.4-153.941,103.792C142.562,480.996,85.74,493.64,27.187,495.92l69.518-69.518
	L85.6,415.298l-69.518,69.519c2.278-58.554,14.924-115.376,37.678-169.175c24.391-57.67,59.312-109.464,103.79-153.943
	c9.43-9.43,19.191-18.425,29.265-26.986l21.928,21.928c-12.1,5.373-23.43,13.005-33.338,22.913
	c-41.43,41.43-43.211,107.717-5.353,151.289l-17.098,17.098l11.104,11.104l17.098-17.098c20.804,18.076,46.786,27.119,72.77,27.119
	c28.436,0,56.873-10.824,78.521-32.473c9.906-9.906,17.54-21.238,22.913-33.338l21.927,21.928
	C368.726,335.257,359.731,345.019,350.302,354.449z M315.608,196.392c-19.123-19.123-44.989-27.493-70.016-25.113l-7.21-7.21
	c5.145-0.844,10.343-1.292,15.544-1.292c24.414,0,48.83,9.293,67.417,27.88c22.547,22.547,31.391,53.666,26.588,82.961l-7.174-7.174
	c0.262-2.766,0.401-5.557,0.401-8.371C341.158,234.774,332.084,212.868,315.608,196.392z M325.083,250.77l-63.803-63.803
	c15.794,1.619,31.149,8.455,43.224,20.53C316.276,219.269,323.435,234.424,325.083,250.77z M240.039,187.935L324.103,272
	c-2.708,13.798-9.434,26.485-19.599,36.65c-11.773,11.773-26.928,18.932-43.273,20.579l9.474-9.474
	c10.479-10.478,16.249-24.41,16.249-39.23c0-14.819-5.771-28.752-16.25-39.23c-21.63-21.631-56.827-21.63-78.459,0l-9.474,9.474
	c1.647-16.345,8.806-31.5,20.579-43.273C213.752,197.095,226.586,190.578,240.039,187.935z M240.001,328.25
	c-13.798-2.709-26.485-9.434-36.651-19.599c-10.165-10.166-16.891-22.853-19.599-36.651l19.599-19.599
	c15.509-15.509,40.743-15.509,56.251,0c15.509,15.509,15.509,40.742,0,56.251L240.001,328.25z M192.246,196.392
	c-16.476,16.476-25.549,38.382-25.549,61.681c0,23.3,9.073,45.206,25.549,61.681c16.475,16.476,38.381,25.549,61.682,25.549
	c23.3,0,45.206-9.074,61.681-25.549c9.946-9.946,17.172-21.879,21.356-34.895l6.333,6.333
	c-4.617,12.517-11.919,24.259-21.954,34.296c-37.174,37.172-97.658,37.173-134.832,0c-37.173-37.173-37.173-97.658,0-134.832
	c10.036-10.036,21.779-17.337,34.296-21.954l6.377,6.377C214.4,179.176,202.373,186.263,192.246,196.392z M387.307,312.994
	l-26.152-26.152c9.242-34.677,1.454-72.983-23.354-101.537l17.098-17.098l-11.104-11.104L326.697,174.2
	c-28.554-24.808-66.861-32.594-101.537-23.354l-26.152-26.152c34.255-27.246,71.914-49.625,112.488-66.786
	c22.036-9.32,44.58-16.937,67.541-22.848l15.276,15.275l11.104-11.104l-8.424-8.424c31.059-6.729,62.828-10.38,95.095-10.891
	c-0.512,32.267-4.162,64.035-10.891,95.094l-8.425-8.425l-11.104,11.104l15.274,15.275c-5.911,22.961-13.528,45.506-22.848,67.541
	C436.933,241.08,414.553,278.739,387.307,312.994z M422.255,381.619c-4.205-4.205-5.557-10.188-4.081-15.549l9.814,9.814
	l11.104-11.104l-9.814-9.814c1.394-0.384,2.827-0.587,4.262-0.587c4.087,0,8.175,1.556,11.286,4.667l44.964,44.964l-22.573,22.574
	L422.255,381.619z"/>
<polygon points="416.641,50.456 405.537,61.56 422.436,78.46 355.02,145.875 366.125,156.981 433.541,89.564 450.44,106.464 
	461.544,95.359 "/>
<g>
	
		<rect x="389.206" y="139.993" transform="matrix(-0.7071 -0.7071 0.7071 -0.7071 564.7977 553.6221)" style="fill:#FFFFFF;" width="15.704" height="39.689"/>
	
		<rect x="344.308" y="95.101" transform="matrix(-0.7071 -0.7071 0.7071 -0.7071 519.8969 445.2396)" style="fill:#FFFFFF;" width="15.704" height="39.689"/>
</g>
</svg>